<?xml version="1.0" encoding="UTF-8"?><svg id="Capa_1" xmlns="http://www.w3.org/2000/svg" viewBox="0 0 128.12 61.03"><defs><style>.cls-1{fill:#f7d135;}.cls-1,.cls-2{stroke-width:0px;}.cls-2{fill:#7f141b;}</style></defs><path class="cls-2" d="M108.25,52.7h-8.99s-1.91.25-1.91.25l-19.74-.97-8.98,3.32h-9.2s-9.26-3.71-9.26-3.71l-19.41,1.61-1.96-.51h-8.99c-6.85,0-12.4-5.63-12.4-12.59v-20.85c0-6.95,5.55-12.59,12.4-12.59l18.76,1.98,13.99,3.55,6.83-.28h9.34s6.8.28,6.8.28l13.31-3.08,19.41-2.45c6.85,0,12.4,5.63,12.4,12.59v20.85c0,6.95-5.55,12.59-12.4,12.59Z"/><path class="cls-1" d="M68.73,11.93l6.55,4.51s16.69-12.61,35.2-5.34c18.52,7.27,3.86,40.33,3.86,40.33,0,0-1.11,4.11,1.44,5.56,3.91,2.24,6.22-1.11,6.22-1.11-4.53,3.9-6.31-3.54-5.02-6.02,1.3-2.48,20.49-31.97-3.24-42.85-23.6-10.82-38.21,5.19-38.21,5.19l-6.8-.28"/><path class="cls-1" d="M68.73,11.93l6.61,4.42c2.11-1.82,5.9-3.65,8.88-4.89,7.94-3.23,17.07-3.99,25.24-1.1,16.91,5.59,10.25,29.04,5.31,41.26-.35,1.43-.44,4.39,1.58,5.12,1.79,1.01,4.05.49,5.23-1.14,0,0,.73.66.73.66-.43.36-.9.7-1.46.95-3.36,1.44-5.03-3.02-4.77-5.69-.01-1.11.61-2.24,1.18-3.15,5.8-10.27,12.09-24.66,3.99-35.29-2.62-3.3-6.42-5.38-10.32-6.87-11.71-4.9-26.14-2.99-35.34,6.07,0,0-.04.03-.04.03h-.04s-6.8-.38-6.8-.38l6.8.18-.08.03c9.14-9.32,23.82-11.45,35.72-6.55,8.71,2.98,14.91,9.51,14.78,19.08-.05,9.2-4.13,17.74-8.61,25.53-.69,1.93-.22,5.47,1.87,6.25.79.19,1.7-.31,2.44-.94l3.58-3.06-2.85,3.72c-.76.99-1.77,1.69-2.98,1.97-1.81.36-3.78-.25-4.95-1.67-1.07-1.51-.97-3.46-.59-5.16,4.77-11.7,11.59-34.8-4.65-40.28-11.32-4.11-24.19-1.06-33.95,5.56,0,0-.07-.05-.07-.05l-6.48-4.61h0Z"/><path class="cls-1" d="M59.39,11.93l-6.58,4.51S36.04,3.83,17.43,11.1c-18.61,7.27-3.87,40.33-3.87,40.33,0,0,1.12,4.11-1.44,5.56-3.93,2.24-6.25-1.11-6.25-1.11,4.56,3.9,6.35-3.54,5.04-6.02S-9.04,17.27,14.16,7.02c23.92-10.58,38.4,5.19,38.4,5.19l6.83-.28"/><path class="cls-1" d="M59.39,11.93s-6.51,4.61-6.51,4.61l-.06.05c-9.8-6.62-22.7-9.66-34.06-5.58-16.38,5.43-9.56,28.55-4.74,40.31.39,1.71.48,3.66-.6,5.17-2,2.43-6.13,2.31-7.96-.31,0,0-2.86-3.7-2.86-3.7,0,0,3.59,3.05,3.59,3.05.75.63,1.66,1.13,2.45.94,2.1-.75,2.59-4.31,1.9-6.23-4.38-7.85-8.28-16.44-8.38-25.62-.18-9.63,5.82-16.18,14.69-19.02,11.94-4.69,26.59-2.7,35.78,6.56-.35-.09,6.81-.18,6.76-.22,0,0-6.83.38-6.83.38-.05,0-.05,0-.08-.03C43.22,3.28,28.82,1.5,17.07,6.2,8.54,9.03,2.84,15.31,3.03,24.6c.12,9.01,4.05,17.48,8.39,25.22,1.51,3.8-1.45,10.42-5.88,6.43,0,0,.73-.66.73-.66,1.71,2.5,6.28,2.14,6.94-1.01.23-.84.06-2.38-.08-2.97-1.35-3.19-2.46-6.44-3.38-9.76-3.83-14.25-4.42-30.26,13.8-32.81,10.03-1.81,21.51,1.54,29.2,7.3,0,0,6.64-4.42,6.64-4.42h0Z"/><path class="cls-1" d="M59.39,55.31c-4.04-1.24-7.54-2.6-11.49-2.76-1.74-.1-3.39.29-4.92,1.1-4.35,2.76-11.15,3.12-14.68-.94,4.75.59,8.41-.68,12.03-3.18.35-.23,1.36-.75,1.74-.96,6.4-2.71,13.9,1.21,17.33,6.74h0Z"/><path class="cls-1" d="M68.73,55.31c3.43-5.52,10.93-9.45,17.33-6.74.38.21,1.38.73,1.74.96,3.62,2.49,7.28,3.77,12.03,3.18-3.53,4.05-10.33,3.69-14.68.94-1.53-.8-3.18-1.19-4.92-1.09-3.95.16-7.45,1.52-11.49,2.76h0Z"/><circle class="cls-1" cx="64.06" cy="51.6" r="2.6"/></svg>